<svg version="1.1" id="Layer_1" xmlns="http://www.w3.org/2000/svg" xmlns:xlink="http://www.w3.org/1999/xlink" x="0px" y="0px"
	 width="100%" viewBox="0 0 240 240" enable-background="new 0 0 240 240" xml:space="preserve">
<path fill="#1C7171" opacity="1.000000" stroke="none" 
	d="
M241.000000,102.000000 
	C241.000000,114.020897 241.000000,126.041786 240.600418,138.476898 
	C238.738098,144.382233 237.532059,149.957275 235.768661,155.350067 
	C227.654602,180.164368 213.501602,200.593536 192.385468,216.329391 
	C175.274445,229.080612 156.087296,236.674011 135.223541,238.639206 
	C111.416664,240.881592 88.023232,237.918396 66.443542,226.248657 
	C65.321899,225.642136 63.615532,225.560089 62.341259,225.876907 
	C45.632298,230.031128 28.944942,234.273636 12.284381,238.617538 
	C11.377512,238.854004 10.754919,240.180771 9.999998,241.000000 
	C7.833333,241.000000 5.604016,240.674210 3.514618,241.076019 
	C0.345004,241.685547 1.048076,239.654388 1.384765,237.546204 
	C2.495478,235.505890 3.451987,233.983200 3.911553,232.322937 
	C8.301394,216.463943 12.717018,200.609955 16.819130,184.675720 
	C17.437813,182.272507 17.251747,179.066299 16.135504,176.903839 
	C4.093730,153.575638 0.773083,128.887360 3.963161,103.085457 
	C7.984480,70.560349 24.351881,45.039974 49.422585,24.937618 
	C64.705475,12.683389 82.341766,5.073132 102.015556,2.713337 
	C102.406586,2.666434 102.674599,1.593988 103.000000,1.000001 
	C114.687561,1.000000 126.375122,1.000000 138.383545,1.319863 
	C139.017517,2.009276 139.307297,2.678564 139.647141,2.705030 
	C151.658737,3.640499 162.778473,7.787187 173.501892,12.797668 
	C186.234451,18.746893 197.148483,27.296261 207.025375,37.392960 
	C224.228165,54.978600 234.954544,75.683434 239.095871,99.888847 
	C239.230896,100.678055 240.343246,101.300056 241.000000,102.000000 
M37.183849,69.722191 
	C28.659765,83.835289 23.971899,99.248260 23.111475,115.589516 
	C22.023649,136.249634 27.582821,155.356094 38.325298,173.047012 
	C39.555237,175.072495 39.972668,178.124634 39.568264,180.496368 
	C38.768112,185.189056 37.107143,189.732635 35.843613,194.349243 
	C34.274708,200.081604 32.747910,205.825470 31.000555,212.316071 
	C42.604527,209.180634 53.124046,206.208710 63.731026,203.591187 
	C65.647659,203.118195 68.079636,203.709137 70.006531,204.478241 
	C78.662186,207.933044 87.036369,212.183807 95.852798,215.126770 
	C116.160461,221.905533 136.283051,219.665176 155.861969,211.957275 
	C166.969788,207.584320 177.973862,202.868103 186.108917,193.400009 
	C191.199142,187.475693 197.457336,182.462646 202.006805,176.182510 
	C218.402710,153.549316 223.482651,128.396515 218.007874,100.875175 
	C213.125565,76.332230 200.383728,56.602592 180.875519,41.800308 
	C159.254303,25.394730 134.593750,18.710949 107.162926,22.832775 
	C85.622459,26.069500 67.572845,35.764076 52.186306,50.563347 
	C46.567207,55.967979 42.380165,62.861496 37.183849,69.722191 
z"/>
<path fill="#000000" opacity="1.000000" stroke="none" 
	d="
M102.531342,1.000001 
	C102.674599,1.593988 102.406586,2.666434 102.015556,2.713337 
	C82.341766,5.073132 64.705475,12.683389 49.422585,24.937618 
	C24.351881,45.039974 7.984480,70.560349 3.963161,103.085457 
	C0.773083,128.887360 4.093730,153.575638 16.135504,176.903839 
	C17.251747,179.066299 17.437813,182.272507 16.819130,184.675720 
	C12.717018,200.609955 8.301394,216.463943 3.911553,232.322937 
	C3.451987,233.983200 2.495478,235.505890 1.384765,237.046204 
	C1.000000,158.435257 1.000000,79.870499 1.000000,1.000000 
	C34.686943,1.000000 68.374817,1.000000 102.531342,1.000001 
z"/>
<path fill="#000000" opacity="1.000000" stroke="none" 
	d="
M10.468655,241.000000 
	C10.754919,240.180771 11.377512,238.854004 12.284381,238.617538 
	C28.944942,234.273636 45.632298,230.031128 62.341259,225.876907 
	C63.615532,225.560089 65.321899,225.642136 66.443542,226.248657 
	C88.023232,237.918396 111.416664,240.881592 135.223541,238.639206 
	C156.087296,236.674011 175.274445,229.080612 192.385468,216.329391 
	C213.501602,200.593536 227.654602,180.164368 235.768661,155.350067 
	C237.532059,149.957275 238.738098,144.382233 240.600418,138.945557 
	C241.000000,172.955292 241.000000,206.910583 241.000000,241.000000 
	C164.312485,241.000000 87.624901,241.000000 10.468655,241.000000 
z"/>
<path fill="#000000" opacity="1.000000" stroke="none" 
	d="
M241.000000,101.531342 
	C240.343246,101.300056 239.230896,100.678055 239.095871,99.888847 
	C234.954544,75.683434 224.228165,54.978600 207.025375,37.392960 
	C197.148483,27.296261 186.234451,18.746893 173.501892,12.797668 
	C162.778473,7.787187 151.658737,3.640499 139.647141,2.705030 
	C139.307297,2.678564 139.017517,2.009276 138.852203,1.319863 
	C172.926575,1.000000 206.853149,1.000000 241.000000,1.000000 
	C241.000000,34.353905 241.000000,67.708290 241.000000,101.531342 
z"/>
<path fill="#000000" opacity="1.000000" stroke="none" 
	d="
M37.361828,69.398979 
	C42.380165,62.861496 46.567207,55.967979 52.186306,50.563347 
	C67.572845,35.764076 85.622459,26.069500 107.162926,22.832775 
	C134.593750,18.710949 159.254303,25.394730 180.875519,41.800308 
	C200.383728,56.602592 213.125565,76.332230 218.007874,100.875175 
	C223.482651,128.396515 218.402710,153.549316 202.006805,176.182510 
	C197.457336,182.462646 191.199142,187.475693 186.108917,193.400009 
	C177.973862,202.868103 166.969788,207.584320 155.861969,211.957275 
	C136.283051,219.665176 116.160461,221.905533 95.852798,215.126770 
	C87.036369,212.183807 78.662186,207.933044 70.006531,204.478241 
	C68.079636,203.709137 65.647659,203.118195 63.731026,203.591187 
	C53.124046,206.208710 42.604527,209.180634 31.000555,212.316071 
	C32.747910,205.825470 34.274708,200.081604 35.843613,194.349243 
	C37.107143,189.732635 38.768112,185.189056 39.568264,180.496368 
	C39.972668,178.124634 39.555237,175.072495 38.325298,173.047012 
	C27.582821,155.356094 22.023649,136.249634 23.111475,115.589516 
	C23.971899,99.248260 28.659765,83.835289 37.361828,69.398979 
M176.519806,167.978241 
	C181.796066,162.872208 182.249878,156.286026 181.948975,149.571060 
	C181.906113,148.614838 180.668777,147.372757 179.675568,146.853439 
	C173.108047,143.419464 166.695450,139.486099 159.774536,136.979599 
	C149.877380,133.395187 152.472626,131.432800 145.716660,140.558777 
	C144.121902,142.712997 142.321487,144.713730 140.668442,146.826324 
	C136.451508,152.215591 131.907761,148.767792 127.947281,146.855484 
	C113.771042,140.010574 102.492096,129.812393 94.213043,116.339851 
	C92.063164,112.841354 91.939041,110.348732 95.264038,107.031113 
	C100.021507,102.284195 104.255699,96.932953 100.164589,89.146935 
	C97.206558,83.517357 95.518761,77.229774 92.708405,71.508804 
	C91.479576,69.007339 89.241547,66.148193 86.802307,65.257423 
	C79.937836,62.750633 69.950760,67.365425 66.331657,73.875618 
	C59.265976,86.585678 59.520878,99.292290 65.645233,112.354111 
	C72.040047,125.992752 81.623970,137.043701 92.046898,147.662201 
	C106.710251,162.600723 124.286659,171.993729 144.501526,176.680328 
	C156.355240,179.428467 166.986023,176.935593 176.519806,167.978241 
z"/>
<path fill="#1C7171" opacity="1.000000" stroke="none" 
	d="
M176.261078,168.237335 
	C166.986023,176.935593 156.355240,179.428467 144.501526,176.680328 
	C124.286659,171.993729 106.710251,162.600723 92.046898,147.662201 
	C81.623970,137.043701 72.040047,125.992752 65.645233,112.354111 
	C59.520878,99.292290 59.265976,86.585678 66.331657,73.875618 
	C69.950760,67.365425 79.937836,62.750633 86.802307,65.257423 
	C89.241547,66.148193 91.479576,69.007339 92.708405,71.508804 
	C95.518761,77.229774 97.206558,83.517357 100.164589,89.146935 
	C104.255699,96.932953 100.021507,102.284195 95.264038,107.031113 
	C91.939041,110.348732 92.063164,112.841354 94.213043,116.339851 
	C102.492096,129.812393 113.771042,140.010574 127.947281,146.855484 
	C131.907761,148.767792 136.451508,152.215591 140.668442,146.826324 
	C142.321487,144.713730 144.121902,142.712997 145.716660,140.558777 
	C152.472626,131.432800 149.877380,133.395187 159.774536,136.979599 
	C166.695450,139.486099 173.108047,143.419464 179.675568,146.853439 
	C180.668777,147.372757 181.906113,148.614838 181.948975,149.571060 
	C182.249878,156.286026 181.796066,162.872208 176.261078,168.237335 
z"/>
</svg>