<?xml version="1.0" standalone="no"?>
<!DOCTYPE svg PUBLIC "-//W3C//DTD SVG 20010904//EN"
 "http://www.w3.org/TR/2001/REC-SVG-20010904/DTD/svg10.dtd">
<svg version="1.0" xmlns="http://www.w3.org/2000/svg"
 width="579.000000pt" height="579.000000pt" viewBox="0 0 579.000000 579.000000"
 preserveAspectRatio="xMidYMid meet">

<g transform="translate(0.000000,579.000000) scale(0.100000,-0.100000)"
fill="#000000" stroke="none">
<path d="M2030 3555 l0 -205 203 2 202 3 3 203 2 202 -205 0 -205 0 0 -205z
m350 5 l0 -150 -150 0 -150 0 0 150 0 150 150 0 150 0 0 -150z"/>
<path d="M2147 3643 c-4 -3 -7 -44 -7 -90 l0 -83 90 0 90 0 0 90 0 90 -83 0
c-46 0 -87 -3 -90 -7z"/>
<path d="M2560 3736 c0 -22 -4 -26 -30 -26 -27 0 -30 -3 -30 -30 0 -27 3 -30
31 -30 28 0 30 -2 27 -32 -2 -28 -8 -34 -30 -36 -22 -3 -28 -9 -28 -28 0 -23
3 -24 60 -24 l60 0 0 -91 0 -90 28 3 c27 3 27 3 30 91 l3 87 29 0 c27 0 30 -3
30 -30 0 -25 4 -30 25 -30 21 0 25 -5 25 -30 0 -25 -4 -30 -25 -30 -25 0 -25
-1 -25 -90 l0 -90 55 0 55 0 0 -90 0 -90 -30 0 c-25 0 -30 -4 -30 -25 0 -20
-5 -25 -25 -25 -24 0 -25 3 -25 55 0 52 1 55 25 55 21 0 25 5 25 30 0 30 -1
30 -54 30 -52 0 -55 -1 -58 -27 -2 -22 -9 -29 -30 -31 -28 -3 -28 -3 -28 57
l0 61 30 0 c27 0 30 3 30 30 l0 30 -150 0 -150 0 0 -30 c0 -27 -3 -30 -30 -30
-27 0 -30 3 -30 30 l0 30 -145 0 -145 0 0 -30 0 -30 115 0 115 0 0 -30 c0 -27
3 -30 30 -30 27 0 30 -3 30 -30 l0 -31 58 3 c54 3 57 4 60 31 3 23 8 27 33 27
26 0 29 -3 29 -30 0 -27 3 -30 30 -30 l30 0 0 -85 0 -85 -30 0 c-27 0 -30 3
-30 30 0 27 -3 30 -30 30 -25 0 -30 4 -30 25 0 24 -3 25 -60 25 -57 0 -60 -1
-60 -25 0 -24 3 -25 60 -25 60 0 60 0 60 -29 0 -25 -4 -30 -27 -33 -24 -3 -28
-8 -28 -33 0 -25 4 -30 28 -33 23 -3 27 -8 27 -33 0 -26 -3 -29 -30 -29 -25 0
-30 -4 -30 -25 l0 -26 118 3 c113 3 117 4 120 26 3 17 10 22 33 22 l29 0 0 95
0 95 30 0 c27 0 30 -3 30 -30 0 -30 1 -30 55 -30 l55 0 0 -90 0 -90 -30 0
c-30 0 -30 1 -30 55 0 52 -1 55 -25 55 -24 0 -25 -3 -25 -55 0 -52 1 -55 25
-55 21 0 25 -5 25 -30 l0 -29 -112 -3 -113 -3 -3 -87 -3 -88 -29 0 c-30 0 -30
1 -30 55 0 54 0 55 -29 55 -26 0 -30 4 -33 33 -3 32 -4 32 -60 35 l-58 3 0
-36 c0 -32 -2 -35 -30 -35 l-30 0 0 65 0 65 30 0 c25 0 30 4 30 25 0 21 -5 25
-30 25 -27 0 -30 3 -30 30 0 27 3 30 31 30 28 0 30 2 27 33 -3 32 -3 32 -58
32 -55 0 -55 0 -58 -32 -3 -29 -7 -33 -33 -33 -27 0 -29 3 -29 35 0 32 -2 35
-30 35 -27 0 -30 3 -30 30 0 25 -4 30 -25 30 -24 0 -25 -2 -25 -65 l0 -65 55
0 c54 0 55 0 55 -30 0 -30 -1 -30 -55 -30 l-55 0 0 -145 0 -145 25 0 25 0 0
120 0 120 30 0 c27 0 30 -3 30 -30 0 -27 3 -30 30 -30 28 0 30 -3 30 -35 0
-32 -2 -35 -30 -35 -30 0 -30 -1 -30 -55 l0 -55 60 0 60 0 0 30 c0 27 3 30 30
30 27 0 30 -3 30 -30 l0 -30 90 0 90 0 0 -60 c0 -60 0 -60 29 -60 25 0 30 4
33 28 2 21 8 27 28 27 23 0 25 -4 28 -57 l3 -58 -61 0 -60 0 0 -150 0 -150 30
0 c27 0 30 3 30 30 0 27 3 30 30 30 27 0 30 -3 30 -30 l0 -30 85 0 85 0 0 30
c0 25 -4 30 -25 30 -21 0 -25 5 -25 30 0 30 1 30 55 30 54 0 55 0 55 30 0 28
3 30 35 30 l35 0 0 -90 0 -90 85 0 85 0 0 30 c0 28 3 30 35 30 32 0 35 -2 35
-30 0 -25 4 -30 25 -30 21 0 25 5 25 30 l0 30 60 0 60 0 0 30 c0 27 3 30 30
30 27 0 30 -3 30 -30 l0 -30 60 0 60 0 0 -30 0 -30 60 0 60 0 0 30 c0 27 3 30
30 30 l30 0 0 60 0 60 30 0 30 0 0 90 0 90 -30 0 c-27 0 -30 -3 -30 -30 l0
-30 -60 0 -60 0 0 30 c0 27 -3 30 -30 30 l-30 0 0 60 0 60 60 0 60 0 0 30 c0
27 -3 30 -30 30 -25 0 -30 4 -30 24 0 19 6 25 28 28 26 3 27 6 30 66 3 61 3
62 32 62 27 0 30 -3 30 -30 0 -27 3 -30 30 -30 27 0 30 3 30 30 0 27 -3 30
-30 30 -30 0 -30 1 -30 55 0 54 0 55 -30 55 -28 0 -30 3 -30 35 l0 35 60 0 60
0 0 55 0 55 -90 0 c-89 0 -90 0 -90 -25 l0 -24 -117 -3 -118 -3 -3 -27 c-3
-28 -3 -28 57 -28 l61 0 0 -65 0 -65 -30 0 c-25 0 -30 -4 -30 -25 0 -25 -1
-25 -90 -25 -89 0 -90 0 -90 25 0 21 5 25 30 25 l30 0 0 65 0 65 -30 0 c-27 0
-30 3 -30 30 0 27 3 30 30 30 25 0 30 4 30 25 0 21 -5 25 -30 25 -25 0 -30 -4
-30 -25 0 -20 -5 -25 -25 -25 -21 0 -25 -5 -25 -30 0 -28 -3 -30 -35 -30 l-35
0 0 55 c0 54 0 55 -30 55 -25 0 -30 -4 -30 -25 0 -20 -5 -25 -25 -25 -24 0
-25 3 -25 55 0 52 1 55 25 55 24 0 25 3 25 60 0 60 0 60 30 60 28 0 29 -1 32
-57 3 -57 3 -58 33 -58 25 0 30 4 33 28 3 21 9 27 28 27 20 0 24 -5 24 -30 0
-27 3 -30 30 -30 27 0 30 3 30 30 0 27 -3 30 -30 30 -27 0 -30 3 -30 30 0 30
0 30 60 30 l59 0 3 -57 3 -58 58 -3 c56 -3 57 -4 57 -32 0 -27 3 -30 30 -30
l30 0 0 90 0 90 30 0 30 0 0 -60 0 -60 60 0 c60 0 60 0 60 29 0 25 4 30 28 33
21 2 28 9 30 31 3 24 0 27 -27 27 -28 0 -31 3 -31 30 0 27 -3 30 -30 30 -27 0
-30 -3 -30 -30 0 -27 -3 -30 -30 -30 -27 0 -30 3 -30 30 0 27 -3 30 -30 30
-27 0 -30 -3 -30 -30 0 -27 -3 -30 -30 -30 -27 0 -30 3 -30 30 0 27 -3 30 -30
30 -27 0 -30 -3 -30 -30 0 -27 -3 -30 -30 -30 -27 0 -30 3 -30 30 0 27 -3 30
-30 30 l-30 0 0 60 0 60 -30 0 c-27 0 -30 -3 -30 -30 0 -25 -4 -30 -25 -30
-25 0 -25 1 -25 89 l0 90 -32 3 c-25 2 -34 8 -36 26 -3 17 -10 22 -33 22 -24
0 -29 -4 -29 -25 0 -24 -3 -25 -55 -25 -52 0 -55 2 -55 24 0 19 6 25 28 28 22
2 28 8 30 36 3 32 4 32 57 32 51 0 54 1 57 28 3 27 3 27 91 30 85 3 87 3 87
27 l0 25 -120 0 -120 0 0 -25 0 -25 -175 0 -175 0 0 -30 c0 -27 -3 -30 -29
-30 -29 0 -30 2 -33 53 -3 48 -5 52 -30 55 -24 3 -28 0 -28 -22z m358 -123 l3
-33 -65 0 c-64 0 -66 -1 -66 -25 0 -24 2 -25 65 -25 l65 0 0 -60 0 -60 30 0
c27 0 30 3 30 30 0 25 4 30 25 30 21 0 25 -5 25 -30 0 -27 3 -30 29 -30 25 0
30 -4 33 -27 2 -23 8 -29 36 -31 28 -3 32 -7 32 -33 0 -24 4 -29 25 -29 21 0
25 -5 25 -30 l0 -30 -60 0 -60 0 0 30 c0 27 -3 30 -30 30 l-30 0 0 60 c0 57
-1 60 -25 60 -24 0 -25 -3 -25 -60 l0 -60 -30 0 -30 0 0 60 0 60 -35 0 -35 0
0 -60 0 -60 -30 0 -30 0 0 60 0 60 30 0 c27 0 30 3 30 30 0 27 -3 30 -30 30
-27 0 -30 3 -30 30 0 25 -4 30 -25 30 -24 0 -25 3 -25 60 l0 61 88 -3 87 -3 3
-32z m-238 -58 c0 -21 -5 -25 -30 -25 -25 0 -30 4 -30 25 0 21 5 25 30 25 25
0 30 -4 30 -25z m-240 -356 c0 -27 -3 -30 -27 -27 -22 2 -29 9 -31 31 -3 24 0
27 27 27 28 0 31 -3 31 -31z m1008 4 c-2 -22 -8 -28 -28 -28 -20 0 -26 6 -28
28 -3 24 0 27 28 27 28 0 31 -3 28 -27z m242 -4 c0 -27 -3 -30 -27 -27 -22 2
-29 9 -31 31 -3 24 0 27 27 27 28 0 31 -3 31 -31z m-1010 -174 c0 -21 -5 -25
-30 -25 -25 0 -30 4 -30 25 0 21 5 25 30 25 25 0 30 -4 30 -25z m240 -1 c0
-23 -3 -25 -32 -22 -25 2 -34 8 -36 26 -3 19 1 22 32 22 32 0 36 -3 36 -26z
m-302 -151 l3 -63 -61 0 -60 0 0 30 c0 27 3 30 30 30 28 0 30 3 30 36 0 33 2
35 28 32 26 -3 27 -6 30 -65z m472 2 l0 -65 35 0 c31 0 35 -3 35 -25 0 -22 -4
-25 -35 -25 -31 0 -35 3 -35 25 0 21 -5 25 -30 25 -25 0 -30 -4 -30 -25 0 -20
-5 -25 -25 -25 -20 0 -25 5 -25 25 0 21 -5 25 -30 25 -27 0 -30 3 -30 29 0 25
4 30 28 33 22 2 28 8 30 36 3 32 4 32 58 32 l54 0 0 -65z m120 30 c0 -31 -3
-35 -25 -35 -22 0 -25 4 -25 35 0 31 3 35 25 35 22 0 25 -4 25 -35z m420 -65
c0 -27 -3 -30 -30 -30 -25 0 -30 -4 -30 -25 0 -24 -3 -25 -60 -25 -57 0 -60 1
-60 25 0 21 5 25 30 25 27 0 30 3 30 30 l0 30 60 0 60 0 0 -30z m-1430 -55 c0
-21 -5 -25 -30 -25 -25 0 -30 4 -30 25 0 21 5 25 30 25 25 0 30 -4 30 -25z
m715 -90 l0 -60 -32 -3 c-33 -3 -33 -4 -33 -58 l0 -54 35 0 c32 0 35 2 35 30
0 27 3 30 30 30 27 0 30 -3 30 -30 0 -30 1 -30 55 -30 54 0 55 0 55 30 0 27
-3 30 -30 30 l-31 0 3 58 c3 54 5 57 30 60 24 3 27 -1 30 -30 3 -29 6 -33 33
-33 27 0 30 4 33 33 3 26 8 32 27 32 19 0 24 -6 27 -32 2 -27 8 -34 30 -36 24
-3 27 1 30 30 2 27 8 34 30 36 24 3 27 -1 30 -30 2 -28 7 -34 31 -36 21 -3 27
-9 27 -28 0 -24 -1 -24 -90 -24 l-90 0 0 -60 0 -59 -87 -3 c-88 -3 -88 -3 -91
-30 l-3 -28 65 0 66 0 0 -30 c0 -25 4 -30 25 -30 22 0 24 -4 27 -57 3 -55 4
-58 31 -61 24 -3 27 0 27 27 l0 31 60 0 60 0 0 -30 c0 -27 3 -30 30 -30 27 0
30 3 30 30 0 27 3 30 30 30 27 0 30 3 30 30 0 27 3 30 30 30 27 0 30 -3 30
-30 0 -27 3 -30 30 -30 l30 0 0 -90 0 -90 -30 0 -30 0 0 60 0 60 -60 0 -60 0
0 -30 c0 -27 -3 -30 -30 -30 -27 0 -30 3 -30 30 l0 30 -60 0 -60 0 0 -30 0
-30 -90 0 -90 0 0 -30 c0 -30 -1 -30 -55 -30 l-55 0 0 60 0 60 -30 0 -30 0 0
61 0 60 -32 -3 c-33 -3 -33 -4 -36 -60 l-3 -58 -84 0 -85 0 0 -60 0 -60 -30 0
c-27 0 -30 3 -30 30 0 27 -3 30 -30 30 l-30 0 0 60 0 60 30 0 c27 0 30 3 30
30 0 27 3 30 30 30 l30 0 0 90 0 90 -30 0 c-27 0 -30 3 -30 30 0 27 3 30 30
30 27 0 30 -3 30 -30 0 -27 3 -30 30 -30 30 0 30 1 30 55 0 52 1 55 25 55 22
0 25 4 25 35 0 32 2 35 30 35 27 0 30 3 30 31 0 28 2 30 33 27 l32 -3 0 -60z
m595 -55 l0 -60 -30 0 c-30 0 -30 1 -30 53 0 60 4 67 37 67 22 0 23 -4 23 -60z
m-1070 -35 c0 -24 -3 -25 -60 -25 -57 0 -60 1 -60 25 0 24 3 25 60 25 57 0 60
-1 60 -25z m1010 -175 l0 -90 -90 0 -90 0 0 90 0 90 90 0 90 0 0 -90z"/>
<path d="M2740 2490 c0 -25 4 -30 25 -30 21 0 25 -5 25 -30 0 -25 -4 -30 -25
-30 -24 0 -25 -3 -25 -60 0 -57 1 -60 25 -60 24 0 25 3 25 60 l0 60 95 0 95 0
0 -30 c0 -25 4 -30 25 -30 21 0 25 -5 25 -30 0 -25 -4 -30 -25 -30 -21 0 -25
-5 -25 -30 0 -25 4 -30 25 -30 21 0 25 -5 25 -30 0 -27 3 -30 30 -30 27 0 30
3 30 29 0 26 4 30 33 33 32 3 32 4 35 61 l3 57 -66 0 -65 0 0 30 c0 25 -4 30
-24 30 -19 0 -25 6 -28 28 -3 26 -6 27 -65 30 -62 3 -63 3 -63 32 0 30 -1 30
-55 30 -54 0 -55 0 -55 -30z m350 -240 c0 -27 -3 -30 -30 -30 -27 0 -30 3 -30
30 0 27 3 30 30 30 27 0 30 -3 30 -30z"/>
<path d="M2620 2250 c0 -27 3 -30 30 -30 27 0 30 3 30 30 0 27 -3 30 -30 30
-27 0 -30 -3 -30 -30z"/>
<path d="M3334 2446 c-10 -26 4 -46 31 -46 23 0 26 4 23 28 -3 31 -44 45 -54
18z"/>
<path d="M3332 3558 l3 -203 208 -3 207 -2 0 205 0 205 -210 0 -210 0 2 -202z
m358 2 l0 -150 -150 0 -150 0 0 150 0 150 150 0 150 0 0 -150z"/>
<path d="M3450 3560 l0 -90 90 0 90 0 0 90 0 90 -90 0 -90 0 0 -90z"/>
<path d="M3210 3500 c0 -27 3 -30 30 -30 27 0 30 3 30 30 0 27 -3 30 -30 30
-27 0 -30 -3 -30 -30z"/>
<path d="M2500 3410 l0 -60 30 0 30 0 0 60 0 60 -30 0 -30 0 0 -60z"/>
<path d="M2030 3110 l0 -60 55 0 55 0 0 60 0 60 -55 0 -55 0 0 -60z"/>
<path d="M3690 2490 c0 -27 3 -30 30 -30 27 0 30 3 30 30 0 27 -3 30 -30 30
-27 0 -30 -3 -30 -30z"/>
<path d="M2030 2250 l0 -210 205 0 205 0 -2 208 -3 207 -202 3 -203 2 0 -210z
m350 0 l0 -150 -150 0 -150 0 0 150 0 150 150 0 150 0 0 -150z"/>
<path d="M2140 2250 l0 -90 90 0 90 0 0 90 0 90 -90 0 -90 0 0 -90z"/>
</g>
</svg>
