<?xml version="1.0" standalone="no"?>
<!DOCTYPE svg PUBLIC "-//W3C//DTD SVG 20010904//EN"
 "http://www.w3.org/TR/2001/REC-SVG-20010904/DTD/svg10.dtd">
<svg version="1.0" xmlns="http://www.w3.org/2000/svg"
 width="579.000000pt" height="579.000000pt" viewBox="0 0 579.000000 579.000000"
 preserveAspectRatio="xMidYMid meet">

<g transform="translate(0.000000,579.000000) scale(0.100000,-0.100000)"
fill="#000000" stroke="none">
<path d="M2310 3375 l0 -105 110 0 111 0 -2 105 -1 105 -109 0 -109 0 0 -105z
m190 0 l0 -75 -80 0 -80 0 0 75 0 75 80 0 80 0 0 -75z"/>
<path d="M2370 3375 l0 -45 45 0 45 0 0 45 0 45 -45 0 -45 0 0 -45z"/>
<path d="M2590 3465 c0 -8 7 -15 15 -15 8 0 15 -7 15 -15 0 -10 -10 -15 -30
-15 -20 0 -30 -5 -30 -15 0 -8 7 -15 15 -15 8 0 15 -7 15 -15 0 -8 7 -15 15
-15 8 0 15 -7 15 -15 0 -8 -7 -15 -15 -15 -8 0 -15 -7 -15 -15 0 -8 7 -15 15
-15 8 0 15 -9 15 -20 0 -11 -6 -20 -14 -20 -7 0 -16 9 -19 20 -8 31 -25 24
-29 -12 -3 -33 -3 -33 -65 -36 -62 -3 -63 -3 -63 -32 0 -20 -5 -30 -15 -30
-10 0 -15 10 -15 30 0 29 -2 30 -45 30 -33 0 -45 -4 -45 -15 0 -8 7 -15 15
-15 8 0 15 -7 15 -15 0 -8 -7 -15 -15 -15 -8 0 -15 -7 -15 -15 0 -8 7 -15 15
-15 8 0 15 7 15 15 0 10 10 15 30 15 20 0 30 -5 30 -15 0 -8 -7 -15 -15 -15
-8 0 -15 -7 -15 -15 0 -8 -7 -15 -15 -15 -10 0 -15 -10 -15 -30 0 -20 5 -30
15 -30 10 0 15 10 15 30 0 20 5 30 15 30 10 0 15 -10 15 -29 0 -16 -6 -31 -15
-35 -9 -3 -15 -18 -15 -36 0 -27 3 -30 29 -30 26 0 30 4 33 33 2 26 8 33 28
35 14 2 29 10 33 18 4 8 15 14 22 14 8 0 15 7 15 15 0 8 -9 15 -20 15 -11 0
-20 7 -20 15 0 8 -7 15 -15 15 -10 0 -15 -10 -15 -30 0 -20 -5 -30 -15 -30 -8
0 -15 7 -15 15 0 8 -7 15 -15 15 -8 0 -15 7 -15 15 0 8 7 15 15 15 8 0 15 7
15 15 0 8 7 15 15 15 8 0 15 7 15 15 0 10 11 15 35 15 24 0 35 -5 35 -15 0 -8
-7 -15 -15 -15 -8 0 -15 -7 -15 -15 0 -8 7 -15 15 -15 8 0 15 -7 15 -15 0 -10
10 -15 30 -15 l30 0 0 60 c0 47 3 60 15 60 10 0 15 -10 15 -30 0 -27 3 -30 30
-30 27 0 30 3 30 30 0 20 -5 30 -15 30 -10 0 -15 11 -15 35 0 24 -5 35 -15 35
-8 0 -15 7 -15 15 0 8 7 15 15 15 8 0 15 7 15 15 0 8 7 15 15 15 8 0 15 7 15
15 0 8 -7 15 -15 15 -8 0 -15 7 -15 15 0 8 7 15 15 15 8 0 15 -7 15 -15 0 -8
7 -15 15 -15 8 0 15 -7 15 -15 0 -10 11 -15 35 -15 24 0 35 -5 35 -15 0 -8 -7
-15 -15 -15 -8 0 -15 -6 -15 -14 0 -8 -3 -21 -6 -30 -4 -12 0 -16 15 -16 12 0
21 6 21 15 0 8 7 15 15 15 8 0 15 -7 15 -15 0 -8 7 -15 15 -15 8 0 15 7 15 15
0 8 -7 15 -15 15 -10 0 -15 10 -15 30 0 20 5 30 15 30 10 0 15 10 15 30 0 29
2 30 45 30 33 0 45 -4 45 -15 0 -8 7 -15 15 -15 10 0 15 10 15 30 0 20 -5 30
-15 30 -8 0 -15 7 -15 15 0 10 -10 15 -30 15 -20 0 -30 -5 -30 -15 0 -8 -7
-15 -15 -15 -8 0 -15 -7 -15 -15 0 -8 -7 -15 -15 -15 -8 0 -15 7 -15 15 0 8
-7 15 -15 15 -8 0 -15 -7 -15 -15 0 -8 7 -15 15 -15 8 0 15 -7 15 -15 0 -11
-12 -15 -50 -15 l-50 0 0 45 c0 33 -4 45 -15 45 -8 0 -15 -7 -15 -15 0 -10
-10 -15 -30 -15 -20 0 -30 5 -30 15 0 8 -7 15 -15 15 -8 0 -15 -7 -15 -15z"/>
<path d="M2747 3465 c6 -17 25 -15 31 3 2 7 -5 12 -17 12 -14 0 -19 -5 -14
-15z"/>
<path d="M3030 3450 c0 -20 -5 -30 -15 -30 -8 0 -15 -7 -15 -15 0 -8 7 -15 15
-15 11 0 15 -12 15 -45 0 -33 4 -45 15 -45 8 0 15 -7 15 -15 0 -9 -7 -18 -15
-21 -8 -4 -15 -12 -15 -20 0 -8 7 -14 15 -14 11 0 15 -12 15 -45 0 -33 4 -45
15 -45 8 0 15 -7 15 -15 0 -8 -7 -15 -15 -15 -8 0 -15 7 -15 15 0 8 -7 15 -15
15 -10 0 -15 10 -15 29 0 20 -6 30 -20 34 -14 3 -20 14 -20 31 0 16 -6 26 -15
26 -10 0 -15 -10 -15 -30 0 -20 -5 -30 -15 -30 -8 0 -15 -7 -15 -15 0 -10 11
-15 35 -15 24 0 35 -5 35 -15 0 -8 7 -15 15 -15 10 0 15 -10 15 -30 0 -21 5
-30 16 -30 11 0 14 -8 12 -32 l-3 -33 -77 -3 c-73 -3 -78 -1 -78 18 0 26 -20
26 -27 0 -3 -11 -12 -20 -19 -20 -8 0 -14 -7 -14 -15 0 -8 -7 -15 -15 -15 -8
0 -15 -7 -15 -15 0 -8 -7 -15 -15 -15 -8 0 -15 -7 -15 -15 0 -10 10 -15 30
-15 20 0 30 5 30 15 0 8 7 15 15 15 8 0 15 7 15 15 0 8 7 15 15 15 8 0 15 -7
15 -15 0 -8 7 -15 15 -15 8 0 15 -7 15 -15 0 -8 7 -15 15 -15 8 0 15 -7 15
-15 0 -10 -10 -15 -30 -15 -20 0 -30 5 -30 15 0 8 -7 15 -15 15 -8 0 -15 -7
-15 -15 0 -11 -12 -15 -45 -15 l-45 0 0 -45 0 -45 45 0 c43 0 45 1 45 30 0 27
3 30 30 30 27 0 30 -3 30 -30 0 -20 5 -30 15 -30 8 0 15 -9 15 -20 0 -16 -7
-20 -30 -20 -20 0 -30 -5 -30 -15 0 -8 -7 -15 -15 -15 -8 0 -15 7 -15 15 0 10
-10 15 -30 15 -29 0 -30 -2 -30 -45 0 -33 4 -45 15 -45 8 0 15 7 15 15 0 8 7
15 15 15 8 0 15 -7 15 -15 0 -10 10 -15 30 -15 20 0 30 -5 30 -15 0 -8 7 -15
15 -15 8 0 15 7 15 15 0 8 7 15 15 15 12 0 15 19 15 110 0 103 1 110 20 110
11 0 20 7 20 15 0 11 12 15 45 15 33 0 45 -4 45 -15 0 -11 -12 -15 -45 -15
-43 0 -45 -1 -45 -30 0 -20 5 -30 15 -30 8 0 15 7 15 15 0 8 7 15 15 15 8 0
15 -7 15 -15 0 -8 7 -15 15 -15 10 0 15 10 15 30 0 20 5 30 15 30 8 0 15 7 15
15 0 8 -7 15 -15 15 -8 0 -15 7 -15 15 0 10 -16 15 -62 17 -38 2 -63 8 -66 16
-3 9 14 12 62 12 52 0 66 3 66 15 0 8 -7 15 -15 15 -8 0 -15 9 -15 20 0 16 7
20 30 20 20 0 30 5 30 15 0 8 -7 15 -15 15 -11 0 -15 12 -15 45 0 33 -4 45
-15 45 -8 0 -15 7 -15 15 0 8 7 15 15 15 8 0 15 7 15 15 0 8 7 15 15 15 10 0
15 11 15 35 0 24 -5 35 -15 35 -8 0 -15 -9 -15 -20 0 -11 -7 -20 -15 -20 -8 0
-15 9 -15 20 0 11 7 20 15 20 8 0 15 7 15 15 0 8 7 15 15 15 8 0 15 -7 15 -15
0 -8 7 -15 15 -15 8 0 15 -7 15 -15 0 -8 7 -15 15 -15 10 0 15 10 15 30 0 20
-5 30 -15 30 -8 0 -15 7 -15 15 0 8 7 15 15 15 10 0 15 10 15 30 0 20 -5 30
-15 30 -10 0 -15 10 -15 30 0 20 -5 30 -15 30 -10 0 -15 -10 -15 -30 0 -20 -5
-30 -15 -30 -10 0 -15 -10 -15 -30 0 -27 -3 -30 -30 -30 -20 0 -30 5 -30 15 0
8 -7 15 -15 15 -8 0 -15 7 -15 15 0 10 10 15 30 15 27 0 30 3 30 30 0 27 -3
30 -30 30 -27 0 -30 -3 -30 -30z m150 -45 c0 -8 -7 -15 -15 -15 -8 0 -15 7
-15 15 0 8 7 15 15 15 8 0 15 -7 15 -15z"/>
<path d="M3249 3448 c0 -18 -1 -64 -2 -103 l-1 -70 74 -5 c41 -3 90 -3 108 -1
l32 3 0 104 0 104 -105 0 -105 0 -1 -32z m181 -75 l0 -78 -75 3 -75 4 0 74 0
74 75 0 75 0 0 -77z"/>
<path d="M3310 3375 l0 -45 45 0 45 0 0 45 0 45 -45 0 -45 0 0 -45z"/>
<path d="M2870 3375 c0 -8 7 -15 15 -15 10 0 15 -10 15 -30 0 -20 -5 -30 -15
-30 -8 0 -15 -9 -15 -20 0 -11 -7 -20 -15 -20 -11 0 -15 -12 -15 -45 0 -33 -4
-45 -15 -45 -8 0 -15 -7 -15 -15 0 -8 -7 -15 -15 -15 -10 0 -15 -10 -15 -30 0
-20 5 -30 15 -30 10 0 15 10 15 30 0 20 5 30 15 30 11 0 15 -12 15 -45 0 -33
4 -45 15 -45 12 0 15 15 15 75 0 60 3 75 15 75 11 0 15 12 15 50 0 38 4 50 15
50 8 0 15 -7 15 -15 0 -8 7 -15 15 -15 8 0 15 7 15 15 0 8 7 15 15 15 9 0 18
-7 21 -15 7 -17 34 -20 34 -4 0 6 -9 13 -20 16 -11 3 -20 12 -20 19 0 8 -7 14
-15 14 -8 0 -15 -7 -15 -15 0 -8 -7 -15 -15 -15 -10 0 -15 10 -15 30 0 20 -5
30 -15 30 -8 0 -15 7 -15 15 0 8 -7 15 -15 15 -8 0 -15 -7 -15 -15z"/>
<path d="M2687 3293 c-13 -12 -7 -54 8 -59 11 -5 15 -22 15 -65 0 -46 -3 -59
-15 -59 -8 0 -15 7 -15 15 0 8 -7 15 -15 15 -8 0 -15 -7 -15 -15 0 -8 7 -15
15 -15 8 0 15 -7 15 -15 0 -8 -7 -15 -15 -15 -10 0 -15 -10 -15 -30 0 -20 5
-30 15 -30 8 0 15 -9 15 -20 0 -16 7 -20 35 -20 25 0 35 -4 35 -16 0 -26 25
-9 27 18 1 18 -4 28 -18 31 -17 5 -19 15 -19 125 0 97 -3 121 -15 126 -8 3
-15 12 -15 21 0 16 -12 20 -23 8z"/>
<path d="M3210 3215 c0 -8 -7 -15 -15 -15 -8 0 -15 -7 -15 -15 0 -8 7 -15 15
-15 8 0 15 7 15 15 0 8 9 15 20 15 16 0 20 -7 20 -30 0 -29 -1 -30 -50 -30
-38 0 -50 -4 -50 -15 0 -8 7 -15 15 -15 10 0 15 -10 15 -30 0 -20 5 -30 15
-30 10 0 15 -11 15 -35 0 -24 -5 -35 -15 -35 -8 0 -15 7 -15 15 0 8 -7 15 -15
15 -10 0 -15 -10 -15 -30 0 -20 5 -30 15 -30 10 0 15 -10 15 -30 l0 -30 110 0
c91 0 110 3 110 15 0 8 -7 15 -15 15 -8 0 -15 7 -15 15 0 8 -7 15 -15 15 -8 0
-15 -7 -15 -15 0 -10 -10 -15 -30 -15 -32 0 -42 23 -15 34 9 3 15 18 15 36 0
20 5 30 15 30 16 0 20 12 8 24 -4 4 -15 -3 -24 -16 -26 -34 -33 -18 -30 70 l1
42 45 0 c33 0 45 4 45 15 0 10 10 15 30 15 27 0 30 -3 30 -30 0 -20 -5 -30
-15 -30 -10 0 -15 -10 -15 -30 0 -20 -5 -30 -15 -30 -10 0 -15 10 -15 30 0 20
-5 30 -15 30 -10 0 -15 -10 -15 -30 0 -20 5 -30 15 -30 8 0 15 -7 15 -15 0 -8
7 -15 15 -15 8 0 15 7 15 15 0 8 7 15 15 15 8 0 15 -9 15 -20 0 -11 -7 -20
-15 -20 -8 0 -15 -7 -15 -15 0 -10 10 -15 30 -15 29 0 30 1 30 50 0 38 -4 50
-15 50 -8 0 -15 7 -15 15 0 8 7 15 15 15 11 0 15 12 15 45 0 43 -1 45 -30 45
-20 0 -30 5 -30 15 0 8 -7 15 -15 15 -10 0 -15 -10 -15 -30 0 -29 -2 -30 -45
-30 -43 0 -45 1 -45 30 0 28 -3 30 -35 30 -24 0 -35 -5 -35 -15z"/>
<path d="M2930 3125 c0 -8 -7 -15 -15 -15 -8 0 -15 -7 -15 -15 0 -8 7 -15 15
-15 8 0 15 -7 15 -15 0 -10 10 -15 30 -15 29 0 30 2 30 45 0 43 -1 45 -30 45
-20 0 -30 -5 -30 -15z"/>
<path d="M2560 3030 c0 -49 -1 -50 -30 -50 -18 0 -33 6 -36 15 -4 8 -12 15
-20 15 -8 0 -14 -7 -14 -15 0 -8 -7 -15 -15 -15 -10 0 -15 -10 -15 -30 0 -20
-5 -30 -15 -30 -8 0 -15 7 -15 15 0 8 -7 15 -15 15 -8 0 -15 7 -15 15 0 10
-10 15 -30 15 -20 0 -30 -5 -30 -15 0 -8 7 -15 15 -15 10 0 15 -10 15 -30 0
-20 -5 -30 -15 -30 -8 0 -15 -7 -15 -15 0 -8 7 -15 15 -15 8 0 15 -7 15 -15 0
-8 7 -15 15 -15 10 0 15 10 15 30 0 20 5 30 15 30 10 0 15 -10 15 -30 0 -20
-5 -30 -15 -30 -8 0 -15 -7 -15 -15 0 -8 -7 -15 -15 -15 -8 0 -15 7 -15 15 0
8 -7 15 -15 15 -10 0 -15 -10 -15 -30 0 -31 2 -32 80 -32 11 0 25 0 30 1 6 1
10 33 10 76 0 60 3 75 15 75 8 0 15 7 15 15 0 10 11 15 35 15 24 0 35 -5 35
-15 0 -8 -7 -15 -15 -15 -8 0 -15 -7 -15 -15 0 -10 10 -15 30 -15 20 0 30 -5
30 -15 0 -10 -10 -15 -30 -15 -20 0 -30 -5 -30 -15 0 -10 10 -15 30 -15 20 0
30 -5 30 -15 0 -8 7 -15 15 -15 10 0 15 10 15 30 0 20 5 30 15 30 12 0 15 -14
15 -65 0 -51 -3 -65 -15 -65 -10 0 -15 -10 -15 -30 0 -20 5 -30 15 -30 10 0
15 10 15 30 0 19 5 30 14 30 7 0 16 9 19 20 3 11 10 20 16 20 6 0 11 -9 11
-20 0 -16 7 -20 36 -20 33 0 35 -2 32 -27 -2 -20 2 -29 15 -31 16 -3 18 3 15
59 -2 39 -8 64 -15 67 -7 2 -13 -3 -13 -12 0 -21 -19 -31 -33 -16 -9 9 -8 14
6 24 21 16 22 36 2 36 -8 0 -15 7 -15 15 0 8 -7 15 -15 15 -8 0 -15 -7 -15
-15 0 -8 -7 -15 -15 -15 -8 0 -15 7 -15 15 0 8 7 15 15 15 8 0 15 7 15 15 0 8
-7 15 -15 15 -8 0 -15 7 -15 15 0 8 7 15 15 15 10 0 15 10 15 30 0 20 -5 30
-15 30 -8 0 -15 7 -15 15 0 8 -7 15 -15 15 -8 0 -15 -7 -15 -15 0 -8 -7 -15
-15 -15 -8 0 -15 9 -15 20 0 12 7 20 16 20 9 0 14 6 11 13 -2 6 -10 11 -16 10
-6 -2 -11 6 -11 17 0 11 -7 20 -15 20 -11 0 -15 -12 -15 -50z m30 -95 c0 -8 7
-15 15 -15 8 0 15 -7 15 -15 0 -8 -7 -15 -15 -15 -8 0 -15 7 -15 15 0 8 -7 15
-15 15 -8 0 -15 7 -15 15 0 8 7 15 15 15 8 0 15 -7 15 -15z"/>
<path d="M2500 3036 c0 -9 7 -16 16 -16 9 0 14 5 12 12 -6 18 -28 21 -28 4z"/>
<path d="M3430 2920 c0 -20 5 -30 15 -30 10 0 15 10 15 30 0 20 -5 30 -15 30
-10 0 -15 -10 -15 -30z"/>
<path d="M2710 2905 c0 -8 7 -15 15 -15 8 0 15 7 15 15 0 8 -7 15 -15 15 -8 0
-15 -7 -15 -15z"/>
<path d="M3210 2846 c0 -9 -7 -16 -15 -16 -31 0 -15 -29 18 -32 25 -2 33 -8
35 -27 5 -33 -15 -51 -32 -28 -16 21 -36 22 -36 2 0 -8 -7 -15 -15 -15 -8 0
-15 7 -15 15 0 8 -7 15 -15 15 -8 0 -15 9 -15 20 0 16 -7 20 -30 20 -28 0 -30
-3 -30 -35 0 -24 -5 -35 -15 -35 -8 0 -15 -7 -15 -15 0 -8 7 -15 15 -15 10 0
15 -10 15 -30 0 -29 -1 -30 -50 -30 l-50 0 0 -44 c0 -30 -5 -46 -15 -50 -8 -3
-15 -10 -15 -16 0 -5 7 -10 15 -10 11 0 15 -12 15 -50 l0 -50 35 0 c39 0 50
24 15 33 -26 7 -26 23 1 30 16 4 20 12 17 34 -2 17 -9 28 -18 28 -10 0 -15 10
-15 30 0 27 4 30 33 33 20 2 32 9 32 18 0 8 7 14 15 14 10 0 15 -10 15 -30 0
-20 -5 -30 -15 -30 -12 0 -15 -14 -15 -65 0 -51 3 -65 15 -65 11 0 15 -12 15
-45 0 -33 -4 -45 -15 -45 -8 0 -15 7 -15 15 0 8 -7 15 -15 15 -8 0 -15 -7 -15
-15 0 -8 -9 -15 -20 -15 -11 0 -20 7 -20 15 0 12 -13 15 -60 15 l-60 0 0 30
c0 20 -5 30 -15 30 -8 0 -15 7 -15 15 0 10 10 15 30 15 20 0 30 5 30 15 0 10
-10 15 -30 15 -20 0 -30 -5 -30 -15 0 -8 -7 -15 -15 -15 -8 0 -15 -7 -15 -15
0 -8 -7 -15 -15 -15 -11 0 -15 12 -15 50 l0 50 60 0 c47 0 60 3 60 15 0 8 -7
15 -15 15 -8 0 -15 7 -15 15 0 10 10 15 30 15 20 0 30 5 30 15 0 11 -12 15
-45 15 -33 0 -45 -4 -45 -15 0 -8 -7 -15 -15 -15 -8 0 -15 7 -15 15 0 8 -7 15
-15 15 -8 0 -15 -7 -15 -15 0 -8 7 -15 15 -15 8 0 15 -7 15 -15 0 -8 -7 -15
-15 -15 -8 0 -15 -7 -15 -15 0 -8 -9 -15 -20 -15 -11 0 -20 7 -20 15 0 8 -7
15 -15 15 -8 0 -15 7 -15 15 0 8 -7 15 -15 15 -8 0 -15 -7 -15 -15 0 -8 -7
-15 -15 -15 -8 0 -15 7 -15 15 0 8 7 15 15 15 8 0 15 7 15 15 0 11 -12 15 -45
15 -33 0 -45 -4 -45 -15 0 -8 7 -15 15 -15 10 0 15 -10 15 -30 0 -20 5 -30 15
-30 8 0 15 -6 15 -14 0 -8 7 -16 15 -20 8 -3 15 -12 15 -21 0 -8 -7 -15 -15
-15 -10 0 -15 -10 -15 -30 0 -20 5 -30 15 -30 10 0 15 10 15 30 0 28 3 30 35
30 19 0 34 -3 34 -7 -7 -44 1 -53 46 -53 43 0 45 -1 45 -30 0 -20 -5 -30 -15
-30 -8 0 -15 7 -15 15 0 8 -7 15 -15 15 -10 0 -15 -10 -15 -30 0 -27 3 -30 30
-30 20 0 30 5 30 15 0 11 12 15 45 15 33 0 45 -4 45 -15 0 -12 17 -15 95 -15
l95 0 0 30 c0 20 5 30 15 30 10 0 15 -10 15 -30 l0 -30 80 0 c64 0 80 3 80 15
0 8 -7 15 -15 15 -8 0 -15 7 -15 15 0 10 10 15 30 15 27 0 30 -3 30 -30 0 -20
5 -30 15 -30 10 0 15 10 15 30 0 20 5 30 15 30 10 0 15 -10 15 -30 0 -27 3
-30 30 -30 20 0 30 5 30 15 0 8 -7 15 -15 15 -8 0 -15 7 -15 15 0 8 7 15 15
15 8 0 15 7 15 15 0 11 -12 15 -45 15 -33 0 -45 4 -45 15 0 8 -7 15 -15 15
-11 0 -15 12 -15 50 0 38 4 50 15 50 10 0 15 10 15 30 l0 30 -65 0 c-51 0 -65
3 -65 15 0 8 9 15 20 15 17 0 20 7 20 45 0 43 1 45 30 45 20 0 30 -5 30 -15 0
-8 7 -15 15 -15 8 0 15 -7 15 -15 0 -10 -10 -15 -30 -15 -20 0 -30 -5 -30 -15
0 -10 10 -15 30 -15 20 0 30 5 30 15 0 8 7 15 15 15 8 0 15 -7 15 -15 0 -10
10 -15 30 -15 29 0 30 2 30 45 0 33 -4 45 -15 45 -8 0 -15 7 -15 15 0 9 7 18
15 21 9 4 15 19 15 35 0 28 -2 29 -45 29 -33 0 -45 4 -45 15 0 8 -7 15 -15 15
-10 0 -15 -10 -15 -30 0 -19 -5 -30 -14 -30 -7 0 -16 -9 -19 -20 -6 -22 -26
-28 -28 -7 0 6 -1 28 -2 47 -2 32 -5 35 -34 38 -25 2 -33 -1 -33 -12z m190
-102 c0 -8 7 -14 15 -14 10 0 15 -10 15 -30 0 -20 -5 -30 -15 -30 -8 0 -15 7
-15 15 0 8 -7 15 -15 15 -10 0 -15 11 -15 35 0 26 3 33 15 29 8 -4 15 -12 15
-20z m-250 -29 c0 -8 7 -15 15 -15 8 0 15 -7 15 -15 0 -8 7 -15 15 -15 8 0 15
7 15 15 0 8 9 15 20 15 11 0 20 -5 20 -11 0 -6 -9 -13 -20 -16 -11 -3 -20 -12
-20 -19 0 -9 -11 -14 -30 -14 -20 0 -30 5 -30 15 0 10 -10 15 -30 15 -20 0
-30 5 -30 15 0 8 7 15 15 15 8 0 15 7 15 15 0 8 7 15 15 15 8 0 15 -7 15 -15z
m0 -120 c0 -8 -7 -15 -15 -15 -8 0 -15 7 -15 15 0 8 7 15 15 15 8 0 15 -7 15
-15z m160 -65 l0 -50 -50 0 -50 0 0 43 c0 24 3 47 7 50 3 4 26 7 50 7 l43 0 0
-50z m-564 9 c10 -17 -13 -36 -27 -22 -12 12 -4 33 11 33 5 0 12 -5 16 -11z
m434 -54 l0 -35 65 0 c51 0 65 -3 65 -15 0 -8 -7 -15 -15 -15 -8 0 -15 -7 -15
-15 0 -8 -7 -15 -15 -15 -8 0 -15 -7 -15 -15 0 -8 -9 -15 -20 -15 -16 0 -20 7
-20 30 0 29 -2 30 -45 30 -43 0 -45 1 -45 30 0 19 5 30 14 30 7 0 16 9 19 20
8 33 27 23 27 -15z"/>
<path d="M3247 2535 c-5 -10 0 -15 14 -15 12 0 19 5 17 12 -6 18 -25 20 -31 3z"/>
<path d="M2495 2790 c-3 -6 1 -13 10 -16 19 -8 30 0 20 15 -8 14 -22 14 -30 1z"/>
<path d="M2530 2745 c0 -8 -7 -15 -15 -15 -8 0 -15 -7 -15 -15 0 -21 8 -19 36
8 27 26 30 37 9 37 -8 0 -15 -7 -15 -15z"/>
<path d="M2310 2715 c0 -11 12 -15 45 -15 33 0 45 4 45 15 0 11 -12 15 -45 15
-33 0 -45 -4 -45 -15z"/>
<path d="M2430 2715 c0 -8 7 -15 15 -15 8 0 15 -7 15 -15 0 -8 7 -15 15 -15 8
0 15 7 15 15 0 8 -7 15 -15 15 -8 0 -15 7 -15 15 0 8 -7 15 -15 15 -8 0 -15
-7 -15 -15z"/>
<path d="M2650 2700 c0 -20 5 -30 15 -30 10 0 15 10 15 30 0 20 -5 30 -15 30
-10 0 -15 -10 -15 -30z"/>
<path d="M2530 2685 c0 -8 -6 -15 -14 -15 -8 0 -16 -7 -20 -15 -3 -9 -18 -15
-36 -15 -20 0 -30 5 -30 15 0 10 -10 15 -30 15 -20 0 -30 -5 -30 -15 0 -8 -7
-15 -15 -15 -8 0 -15 7 -15 15 0 8 -7 15 -15 15 -8 0 -15 -7 -15 -15 0 -8 7
-15 15 -15 8 0 15 -7 15 -15 0 -8 -7 -15 -15 -15 -8 0 -15 -7 -15 -15 0 -8 7
-15 15 -15 8 0 15 7 15 15 0 10 10 15 30 15 20 0 30 -5 30 -15 0 -8 7 -15 15
-15 8 0 15 7 15 15 0 10 10 15 30 15 20 0 30 5 30 15 0 8 7 15 15 15 9 0 18 7
21 15 4 8 12 15 20 15 8 0 14 7 14 15 0 8 -7 15 -15 15 -8 0 -15 -7 -15 -15z"/>
<path d="M2710 2655 c0 -8 7 -15 15 -15 8 0 15 7 15 15 0 8 -7 15 -15 15 -8 0
-15 -7 -15 -15z"/>
<path d="M2530 2625 c0 -8 -7 -15 -15 -15 -8 0 -15 -7 -15 -15 0 -10 10 -15
30 -15 l30 0 0 -65 c0 -51 3 -65 15 -65 10 0 15 10 15 30 0 18 6 33 15 36 8 4
15 12 15 20 0 8 -7 14 -15 14 -10 0 -15 10 -15 30 0 20 -5 30 -15 30 -8 0 -15
7 -15 15 0 8 -7 15 -15 15 -8 0 -15 -7 -15 -15z"/>
<path d="M3400 2595 c0 -8 7 -15 15 -15 28 0 15 -27 -15 -33 -30 -6 -42 -27
-16 -27 7 0 16 -9 19 -20 3 -14 14 -20 31 -20 25 0 26 2 26 65 l0 65 -30 0
c-20 0 -30 -5 -30 -15z"/>
<path d="M2317 2544 c-4 -4 -7 -54 -7 -111 l0 -103 109 0 109 0 -1 108 -2 107
-101 3 c-55 1 -103 0 -107 -4z m181 -107 l3 -77 -81 0 -80 0 0 79 0 78 78 -1
77 -1 3 -78z"/>
<path d="M2370 2435 l0 -45 45 0 45 0 0 45 0 45 -45 0 -45 0 0 -45z"/>
<path d="M2560 2375 c0 -43 1 -45 30 -45 20 0 30 5 30 15 0 8 -7 15 -15 15 -8
0 -15 7 -15 15 0 8 7 15 15 15 8 0 15 7 15 15 0 10 -10 15 -30 15 -29 0 -30
-2 -30 -45z"/>
<path d="M2710 2405 c0 -8 7 -15 15 -15 8 0 15 7 15 15 0 8 -7 15 -15 15 -8 0
-15 -7 -15 -15z"/>
<path d="M2650 2375 c0 -8 7 -15 15 -15 8 0 15 -7 15 -15 0 -8 7 -15 15 -15 8
0 15 7 15 15 0 8 -7 15 -15 15 -8 0 -15 7 -15 15 0 8 -7 15 -15 15 -8 0 -15
-7 -15 -15z"/>
<path d="M2571 2264 c0 -11 3 -14 6 -6 3 7 2 16 -1 19 -3 4 -6 -2 -5 -13z"/>
<path d="M2707 2269 c7 -7 15 -10 18 -7 3 3 -2 9 -12 12 -14 6 -15 5 -6 -5z"/>
<path d="M3210 2266 c0 -9 5 -16 10 -16 6 0 10 4 10 9 0 6 -4 13 -10 16 -5 3
-10 -1 -10 -9z"/>
<path d="M2600 2259 c0 -5 5 -7 10 -4 6 3 10 8 10 11 0 2 -4 4 -10 4 -5 0 -10
-5 -10 -11z"/>
<path d="M2648 2263 c7 -3 16 -2 19 1 4 3 -2 6 -13 5 -11 0 -14 -3 -6 -6z"/>
<path d="M2780 2259 c0 -5 5 -7 10 -4 6 3 10 8 10 11 0 2 -4 4 -10 4 -5 0 -10
-5 -10 -11z"/>
<path d="M2820 2259 c0 -5 5 -7 10 -4 6 3 10 8 10 11 0 2 -4 4 -10 4 -5 0 -10
-5 -10 -11z"/>
<path d="M2990 2260 c0 -5 5 -10 11 -10 5 0 7 5 4 10 -3 6 -8 10 -11 10 -2 0
-4 -4 -4 -10z"/>
<path d="M3115 2260 c3 -5 8 -10 11 -10 2 0 4 5 4 10 0 6 -5 10 -11 10 -5 0
-7 -4 -4 -10z"/>
</g>
</svg>
